<?xml version="1.0" encoding="utf-8"?>
<!-- Generator: Adobe Illustrator 25.2.1, SVG Export Plug-In . SVG Version: 6.00 Build 0)  -->
<svg version="1.1" id="Layer_1" xmlns="http://www.w3.org/2000/svg" xmlns:xlink="http://www.w3.org/1999/xlink" x="0px" y="0px"
	 viewBox="0 0 977.2 504.8" style="enable-background:new 0 0 977.2 504.8;" xml:space="preserve">
<style type="text/css">
	.st0{fill:#DAA507;}
	.st1{fill:#803300;}
	.st2{fill:#552200;}
	.st3{fill:#FFDD55;}
	.st4{fill:#FFCC00;}
	.st5{fill:#44AA00;}
	.st6{fill:#338000;}
	.st7{fill:#EB3F0B;}
	.st8{fill:#D40000;}
	.st9{fill:#D3BC5F;}
	.st10{font-family:'Paralucent-DemiBold';}
	.st11{font-size:80px;}
</style>
<g transform="translate(-362 -245.65)">
	<path class="st0" d="M431.2,578c-11.1,55.5-31.8,165.1,24.4,164c278,17.8,530.1,4,778.2-10c50.2-9.1,19.9-106.2,18.8-160L431.2,578
		L431.2,578z"/>
	<path class="st1" d="M422.5,499.2c-25.4,9.4-46.3,99.2,4.3,117.1c275,29.1,553-16.5,813.4-29.2c63.4,13.4,43-117.6-8.7-135.4
		C957.9,440.4,689,461.9,422.5,499.2L422.5,499.2z"/>
	<path class="st2" d="M443.2,475.1c-24,5.9-51.7,108.2-3.9,119.5c197.7,15.5-68-57.2,775.4-64.3c59.8,8.4,40.5-73.8-8.2-84.9
		C948.4,438.2,694.7,451.7,443.2,475.1L443.2,475.1z"/>
	<path class="st3" d="M418,464l748-12c-160.9,63.6-254.5,10.1-510,216C467.5,449.3,483.4,520,418,464z"/>
	<path class="st4" d="M424,440l748-12c-160.9,63.6-254.5,10.1-510,216C473.5,425.3,489.4,496,424,440z"/>
	<path class="st5" d="M505.5,400.7l672.2-2.7c144.6,58.1,245.7,103.9,63,69.9c75.8,110.8-126.8,8.4-113.3-21.5
		c74.9,116.5-4.5,88.4-55.1,37.7c-8.8,73.1-71.9,16.1-119.6-4l56.7-24.2c-38.3,168.7-136.3,28-151.1-13.4
		c57.5,80.6-41.1,137.4-75.6-5.4c68.6,66.6-39.8,136.8-102.3,90.1l77.1-59.2c-155.4,198.6-193.2,10.9-190.5-13.4l37.8,30.9
		C577,585.2,489.6,438,474,400.7L505.5,400.7L505.5,400.7z"/>
	<path class="st6" d="M501.6,458.6l632.9-50.5c138.2,14.7,234.9,27.3,61.7,25.9c75.2,42.8-119.1,13-107.5-1.1
		c74.5,45.4-1.3,38.9-50.6,20.5c-5.8,32.6-67.2,12.3-112.8,7l52.5-14.7c-30.3,76.5-127.4,22.2-142.8,5.2c56.9,30.9-34,63-71.3,3.2
		c66.8,24-32.8,62.6-93.3,46.9l70.6-31.5c-139.6,98.1-181.5,18.9-179.8,8.1l36.6,10.7c-22.6,45.6-110-12.2-125.9-27.4L501.6,458.6
		L501.6,458.6z"/>
	<path class="st7" d="M932,394c-195.3,11.6-390.3,23.9-570,72c1.2,56.5,7.6,71.1,14,86c163.3-69.4,369.5-86.4,580-98
		C955.7,440.4,962.7,432.9,932,394z"/>
	<path class="st8" d="M923.6,404c-235.4,3.2-395.5,37.6-555.6,72c141.2-11,375.1-47.6,340.8-10c69-9.2,139.8-17.3,225.1-16
		C943.8,417.5,928.4,417.5,923.6,404L923.6,404z"/>
	<path class="st0" d="M427,447.6c291.2-5.1,567.3-12.9,807.2-27.1C1303.4,192.8,379.8,172.9,427,447.6L427,447.6z"/>
	<path class="st9" d="M428,658c0,27.2-8.9,59.7,16,72c230.5,23.5,478.2,3,694,2C311.9,741.1,527.2,687.9,428,658z"/>
	<path class="st9" d="M477.8,352.4c-15.7-12.1-63.1,65.3-34,88c515.4-10.5,478.2-15,694-16C311.7,433.5,499,414.3,477.8,352.4
		L477.8,352.4z"/>
</g>
<g>
	
		<image style="overflow:visible;opacity:0.6;" width="650" height="95" xlink:href="DCDEAB21EE95DC3D.png"  transform="matrix(1 0 0 1 158 65.7537)">
	</image>
	<g>
		<text transform="matrix(1 0 0 1 156.4817 133.7208)" class="st2 st10 st11">The Happy Burger</text>
	</g>
</g>
</svg>
